<?xml version="1.0" encoding="UTF-8" standalone="no"?>
<svg
   xmlns:dc="http://purl.org/dc/elements/1.1/"
   xmlns:cc="http://creativecommons.org/ns#"
   xmlns:rdf="http://www.w3.org/1999/02/22-rdf-syntax-ns#"
   xmlns:svg="http://www.w3.org/2000/svg"
   xmlns="http://www.w3.org/2000/svg"
   xmlns:sodipodi="http://sodipodi.sourceforge.net/DTD/sodipodi-0.dtd"
   xmlns:inkscape="http://www.inkscape.org/namespaces/inkscape"
   inkscape:version="1.0 (4035a4fb49, 2020-05-01)"
   sodipodi:docname="leaf_new.svg"
   id="svg42"
   height="16"
   width="16"
   p-id="1238"
   version="1.1"
   viewBox="0 0 1024 1024"
   class="icon"
   t="1612357250883">
  <metadata
     id="metadata46">
    <rdf:RDF>
      <cc:Work
         rdf:about="">
        <dc:format>image/svg+xml</dc:format>
        <dc:type
           rdf:resource="http://purl.org/dc/dcmitype/StillImage" />
        <dc:title></dc:title>
        <cc:license
           rdf:resource="http://creativecommons.org/licenses/by/4.0/" />
      </cc:Work>
      <cc:License
         rdf:about="http://creativecommons.org/licenses/by/4.0/">
        <cc:permits
           rdf:resource="http://creativecommons.org/ns#Reproduction" />
        <cc:permits
           rdf:resource="http://creativecommons.org/ns#Distribution" />
        <cc:requires
           rdf:resource="http://creativecommons.org/ns#Notice" />
        <cc:requires
           rdf:resource="http://creativecommons.org/ns#Attribution" />
        <cc:permits
           rdf:resource="http://creativecommons.org/ns#DerivativeWorks" />
      </cc:License>
    </rdf:RDF>
  </metadata>
  <sodipodi:namedview
     showguides="true"
     inkscape:current-layer="layer1"
     inkscape:window-maximized="0"
     inkscape:window-y="150"
     inkscape:window-x="464"
     inkscape:cy="7.292733"
     inkscape:cx="6.9942775"
     inkscape:zoom="45.254834"
     showgrid="false"
     id="namedview44"
     inkscape:window-height="1191"
     inkscape:window-width="1878"
     inkscape:pageshadow="2"
     inkscape:pageopacity="0"
     guidetolerance="10"
     gridtolerance="10"
     objecttolerance="10"
     borderopacity="1"
     bordercolor="#666666"
     pagecolor="#ffffff">
    <inkscape:grid
       id="grid215"
       type="xygrid" />
  </sodipodi:namedview>
  <defs
     id="defs38">
    <style
       id="style36"
       type="text/css" />
  </defs>
  <g
     style="display:inline"
     inkscape:label="Layer 2"
     id="layer2"
     inkscape:groupmode="layer">
    <path
       transform="scale(64)"
       id="path205"
       d="M 7.4835289,15.781231 C 7.4491539,15.777923 7.3401695,15.767759 7.2413414,15.758644 5.8527187,15.630578 4.4616339,15.095176 3.3265564,14.251917 2.7594998,13.830646 2.1847175,13.259282 1.7543736,12.689085 0.86665395,11.512873 0.32887295,10.092626 0.21017843,8.6109596 0.18912116,8.3481013 0.18906963,7.665951 0.21008812,7.4156471 0.43984936,4.6794787 2.021709,2.3171006 4.4522789,1.0802818 c 2.5102987,-1.27738954 5.5236445,-1.099461 7.8750001,0.4649939 1.749298,1.1638808 2.969049,3.0155164 3.342128,5.0734964 0.137461,0.7582633 0.160239,1.6227303 0.06278,2.3828125 -0.189015,1.4741914 -0.797449,2.8573684 -1.769836,4.0234374 -0.198641,0.238207 -0.696268,0.734583 -0.939042,0.936683 -1.217324,1.013372 -2.592667,1.599419 -4.2038476,1.7913 -0.1989528,0.02369 -1.1698664,0.04421 -1.3359375,0.02823 z M 4.6285507,13.181272 c 0.141961,-0.365234 0.2598788,-0.666301 0.2620394,-0.669036 0.00216,-0.0027 0.091045,0.02288 0.1975203,0.05692 0.2984785,0.09542 0.4570863,0.117711 0.7515478,0.105616 1.23795,-0.05085 2.3029107,-0.477632 3.3548082,-1.344436 0.2084995,-0.171812 0.7579945,-0.727356 0.9588176,-0.969372 1.235812,-1.4893101 2.225701,-3.5698315 2.921644,-6.140631 0.125108,-0.4621447 0.286826,-1.163602 0.345817,-1.4999944 l 0.01096,-0.0625 -0.06357,0.095182 C 13.246285,2.9354493 13.051448,3.0825518 12.717904,3.2439404 12.056348,3.5640407 11.13793,3.775963 9.0616539,4.0876098 7.3742653,4.3408849 6.4242389,4.5044484 5.9731428,4.6193504 4.5702256,4.9766976 3.4077125,5.9171424 2.7483276,7.2281471 2.2827226,8.1538745 2.1865382,8.9377801 2.4474829,9.6800435 c 0.1490646,0.4240175 0.4030943,0.8669125 0.7187383,1.2531035 0.054207,0.06632 0.1029669,0.115883 0.1083558,0.110137 0.00539,-0.0057 0.022232,-0.04912 0.03743,-0.09639 C 3.4512375,10.513869 3.7489048,9.8661391 4.0182654,9.4100634 4.4982459,8.5973705 5.1779226,7.8345295 5.9306159,7.2637199 7.1103157,6.3690876 8.6689242,5.7781705 10.247757,5.6269573 10.616259,5.5916638 10.641521,5.5968346 10.405404,5.6592255 9.4895701,5.9012229 8.7090162,6.2136282 7.9972846,6.6230402 6.6676265,7.3879043 5.6177925,8.4944648 4.7919368,10.001585 4.4259375,10.669504 4.1033782,11.393993 3.6719228,12.51721 3.37399,13.292824 3.3111373,13.467485 3.3276278,13.473972 c 0.268397,0.105571 1.0056162,0.375307 1.0212315,0.373651 0.013296,-0.0014 0.1206647,-0.25721 0.2796914,-0.666351 z"
       style="display:inline;fill:#00cc00;stroke-width:0.015625" />
  </g>
  <g
     style="display:inline;opacity:1;mix-blend-mode:normal"
     inkscape:label="Layer 1"
     id="layer1"
     inkscape:groupmode="layer">
    <path
       id="path183"
       d="m 245.6084,873.41405 c -16.45302,-6.26981 -30.3569,-11.86842 -30.89751,-12.44126 -1.84985,-1.96017 39.1391,-106.7014 60.78985,-155.33952 75.2115,-168.96173 179.41358,-270.06614 334.71743,-324.76714 21.7732,-7.66894 46.33549,-15.32671 54.58291,-17.01727 8.24742,-1.69057 14.99531,-3.87707 14.99531,-4.85888 0,-4.74863 -69.14629,4.86522 -110.36545,15.34482 -42.80135,10.88184 -75.38312,23.13385 -114.52614,43.06624 -56.71128,28.87848 -97.41551,59.54415 -138.80134,104.56982 -41.45423,45.10009 -72.32284,94.3799 -95.11805,151.85006 l -12.47687,31.45605 -6.95651,-8.57502 C 190.55379,683.14478 169.1161,647.67288 162.856,632.67346 141.31368,581.05741 144.59263,531.95396 173.71065,470.1209 c 30.05089,-63.81401 85.97403,-121.05204 147.11969,-150.57884 41.32181,-19.95402 77.53957,-28.50061 204.40466,-48.23502 165.825,-25.7948 193.42484,-30.92912 242.13397,-45.04342 32.2534,-9.34597 66.58884,-26.08191 80.15589,-39.06991 l 10.11539,-9.68365 -1.63208,7.4306 C 830.42736,301.42054 801.43325,390.24804 758.981,482.19763 693.60051,623.80896 612.83801,720.78309 518.3607,771.11834 c -60.20346,32.07493 -145.54702,47.05798 -189.63044,33.2918 l -16.37092,-5.11235 -2.23504,5.4306 c -1.22929,2.98654 -8.62283,21.98931 -16.43011,42.22781 -7.80729,20.2385 -15.08969,37.03579 -16.18313,37.32736 -1.09345,0.2888 -15.44963,-4.59986 -31.90265,-10.86962 z"
       style="display:inline;fill:#ffffff;stroke-width:2.46976" />
  </g>
</svg>
